<svg width="600" height="400" viewBox="0 0 600 400" fill="none" xmlns="http://www.w3.org/2000/svg">
  <rect width="600" height="400" fill="#F8F9FA"/>
  <circle cx="300" cy="200" r="150" fill="#E3F2FD"/>
  <circle cx="250" cy="160" r="20" fill="#4A6FA5"/>
  <circle cx="350" cy="160" r="20" fill="#4A6FA5"/>
  <path d="M250 220C250 220 270 250 300 250C330 250 350 220 350 220" stroke="#4A6FA5" stroke-width="8" stroke-linecap="round"/>
  <path d="M200 100C200 100 220 80 250 80C280 80 300 100 300 100" stroke="#4A6FA5" stroke-width="4" stroke-linecap="round"/>
  <path d="M300 100C300 100 320 80 350 80C380 80 400 100 400 100" stroke="#4A6FA5" stroke-width="4" stroke-linecap="round"/>
  <path d="M180 300C180 300 200 280 230 280C260 280 280 300 280 300" stroke="#4A6FA5" stroke-width="4" stroke-linecap="round"/>
  <path d="M320 300C320 300 340 280 370 280C400 280 420 300 420 300" stroke="#4A6FA5" stroke-width="4" stroke-linecap="round"/>
</svg>